<svg id="Layer_1" xmlns="http://www.w3.org/2000/svg" viewBox="0 0 375 375.8"><style>.st0{fill:none}.st1{font-family:&apos;JosefinSans&apos;}.st2{font-size:41.8616px}.st3{font-size:39.1546px}</style><path class="st0" d="M0 .4h375v375H0z"/><title>SEVEN</title><path d="M21.4 55.3v61.6h132.5L24.7 359H97L250.8 55.3z"/><path d="M280 116h81.1V55.3H136.3V116h81.1v243H280z"/><text transform="matrix(.9353 0 0 1 56.408 44.373)" class="st1 st2">S</text><text transform="matrix(.9353 0 0 1 109.346 44.373)" class="st1 st2">E</text><text transform="matrix(.9353 0 0 1 164.185 44.373)" class="st1 st2">V</text><text transform="matrix(.9353 0 0 1 223.781 44.373)" class="st1 st2">E</text><text transform="matrix(.9353 0 0 1 278.623 44.373)" class="st1 st2">N</text><text transform="matrix(0 1.0691 -1 0 309.242 137.466)" class="st1 st3">T</text><text transform="matrix(0 1.0691 -1 0 309.242 160.586)" class="st1 st3">H</text><text transform="matrix(0 1.0691 -1 0 309.242 189.87)" class="st1 st3">O</text><text transform="matrix(0 1.0691 -1 0 309.242 225.011)" class="st1 st3">U</text><text transform="matrix(0 1.0691 -1 0 309.242 252.294)" class="st1 st3">G</text><text transform="matrix(0 1.0691 -1 0 309.242 280.837)" class="st1 st3">H</text><text transform="matrix(0 1.0691 -1 0 309.242 310.121)" class="st1 st3">T</text><text transform="matrix(0 1.0691 -1 0 309.242 333.242)" class="st1 st3">S</text></svg>