<svg id="Layer_1" data-name="Layer 1" xmlns="http://www.w3.org/2000/svg" viewBox="0 0 375 375"><defs><style>.cls-1{fill:none}.cls-2,.cls-3,.cls-4,.cls-5,.cls-6{isolation:isolate;font-family:JosefinSans,Josefin Sans}.cls-2,.cls-3{font-size:41.86px}.cls-3{letter-spacing:-.04em}.cls-4,.cls-5,.cls-6{font-size:39.15px}.cls-4,.cls-6{letter-spacing:-.03em}</style></defs><title>SevenLogo2</title><path class="cls-1" d="M0 0h375v375H0z"/><path d="M21.43 54.94v61.62h132.43L24.75 358.67h72.28L250.8 54.94H21.43z"/><path d="M280.03 115.67h81.05V54.94H136.3v60.73h81.05v243h62.68v-243z"/><text class="cls-2" transform="matrix(.94 0 0 1 56.41 44)">S</text><text class="cls-2" transform="matrix(.94 0 0 1 109.35 44)">E</text><text class="cls-3" transform="matrix(.94 0 0 1 164.19 44)">V</text><text class="cls-2" transform="matrix(.94 0 0 1 223.78 44)">E</text><text class="cls-2" transform="matrix(.94 0 0 1 278.62 44)">N</text><text class="cls-4" transform="matrix(0 1.07 -1 0 309.24 137.09)">T</text><text class="cls-5" transform="matrix(0 1.07 -1 0 309.24 160.21)">H</text><text class="cls-5" transform="matrix(0 1.07 -1 0 309.24 189.5)">O</text><text class="cls-5" transform="matrix(0 1.07 -1 0 309.24 224.64)">U</text><text class="cls-5" transform="matrix(0 1.07 -1 0 309.24 251.92)">G</text><text class="cls-5" transform="matrix(0 1.07 -1 0 309.24 280.46)">H</text><text class="cls-6" transform="matrix(0 1.07 -1 0 309.24 309.75)">T</text><text class="cls-5" transform="matrix(0 1.07 -1 0 309.24 332.87)">S</text></svg>