<svg id="Layer_1" data-name="Layer 1" xmlns="http://www.w3.org/2000/svg" viewBox="0 0 221.25 266.61"><title>7t-logo</title><polygon points="0.15 28.92 0.15 66.48 86.43 66.48 2.33 213.99 49.42 213.99 149.57 28.92 0.15 28.92"/><polygon points="168.3 65.93 221.09 65.93 221.09 28.92 74.67 28.92 74.67 65.93 127.47 65.93 127.47 213.99 168.3 213.99 168.3 65.93"/><text transform="translate(45.32 21.69)" style="font-size:25.514999389648438px;font-family:JosefinSans-Bold, Josefin Sans;font-weight:700">S</text><text transform="translate(69.88 21.69)" style="font-size:25.514999389648438px;font-family:JosefinSans-Bold, Josefin Sans;font-weight:700">E</text><text transform="translate(95.42 21.69)" style="font-size:25.514999389648438px;font-family:JosefinSans-Bold, Josefin Sans;font-weight:700">V</text><text transform="translate(124.04 21.69)" style="font-size:25.514999389648438px;font-family:JosefinSans-Bold, Josefin Sans;font-weight:700">E</text><text transform="translate(149.57 21.69)" style="font-size:25.514999389648438px;font-family:JosefinSans-Bold, Josefin Sans;font-weight:700">N</text><rect y="229.2" width="221.25" height="6.75"/><text transform="translate(6.5 259.95)" style="font-size:25.514999389648438px;font-family:JosefinSans-Bold, Josefin Sans;font-weight:700">T</text><text transform="translate(30.8 259.95)" style="font-size:25.514999389648438px;font-family:JosefinSans-Bold, Josefin Sans;font-weight:700">H</text><text transform="translate(58.86 259.95)" style="font-size:25.514999389648438px;font-family:JosefinSans-Bold, Josefin Sans;font-weight:700">O</text><text transform="translate(90.49 259.95)" style="font-size:25.514999389648438px;font-family:JosefinSans-Bold, Josefin Sans;font-weight:700">U</text><text transform="translate(117.32 259.95)" style="font-size:25.514999389648438px;font-family:JosefinSans-Bold, Josefin Sans;font-weight:700">G</text><text transform="translate(145.18 259.95)" style="font-size:25.514999389648438px;font-family:JosefinSans-Bold, Josefin Sans;font-weight:700">H</text><text transform="translate(173.23 259.95)" style="font-size:25.514999389648438px;font-family:JosefinSans-Bold, Josefin Sans;font-weight:700">T</text><text transform="translate(197.54 259.95)" style="font-size:25.514999389648438px;font-family:JosefinSans-Bold, Josefin Sans;font-weight:700">S</text></svg>