<svg id="Layer_1" data-name="Layer 1" xmlns="http://www.w3.org/2000/svg" viewBox="0 0 375 375"><defs><style>.cls-1{fill:none;}.cls-2,.cls-3,.cls-4,.cls-5,.cls-6{isolation:isolate;font-family:JosefinSans, Josefin Sans;}.cls-2,.cls-3{font-size:41.86px;}.cls-3{letter-spacing:-0.04em;}.cls-4,.cls-5,.cls-6{font-size:39.15px;}.cls-4{letter-spacing:-0.03em;}.cls-6{letter-spacing:-0.03em;}</style></defs><title>SevenLogo2</title><rect class="cls-1" width="375" height="375"/><polygon points="21.43 54.94 21.43 116.56 153.86 116.56 24.75 358.67 97.03 358.67 250.8 54.94 21.43 54.94"/><polygon points="280.03 115.67 361.08 115.67 361.08 54.94 136.3 54.94 136.3 115.67 217.35 115.67 217.35 358.67 280.03 358.67 280.03 115.67"/><text class="cls-2" transform="translate(56.41 44) scale(0.94 1)">S</text><text class="cls-2" transform="translate(109.35 44) scale(0.94 1)">E</text><text class="cls-3" transform="translate(164.19 44) scale(0.94 1)">V</text><text class="cls-2" transform="translate(223.78 44) scale(0.94 1)">E</text><text class="cls-2" transform="translate(278.62 44) scale(0.94 1)">N</text><text class="cls-4" transform="matrix(0, 1.07, -1, 0, 309.24, 137.09)">T</text><text class="cls-5" transform="matrix(0, 1.07, -1, 0, 309.24, 160.21)">H</text><text class="cls-5" transform="matrix(0, 1.07, -1, 0, 309.24, 189.5)">O</text><text class="cls-5" transform="matrix(0, 1.07, -1, 0, 309.24, 224.64)">U</text><text class="cls-5" transform="matrix(0, 1.07, -1, 0, 309.24, 251.92)">G</text><text class="cls-5" transform="matrix(0, 1.07, -1, 0, 309.24, 280.46)">H</text><text class="cls-6" transform="matrix(0, 1.07, -1, 0, 309.24, 309.75)">T</text><text class="cls-5" transform="matrix(0, 1.07, -1, 0, 309.24, 332.87)">S</text></svg>