<?xml version="1.0" encoding="utf-8"?>
<!-- Generator: Adobe Illustrator 21.0.2, SVG Export Plug-In . SVG Version: 6.00 Build 0)  -->
<svg version="1.1" id="Layer_1" xmlns="http://www.w3.org/2000/svg" xmlns:xlink="http://www.w3.org/1999/xlink" x="0px" y="0px"
	 viewBox="0 0 375 375.8" style="enable-background:new 0 0 375 375.8;" xml:space="preserve">
<style type="text/css">
	.st0{fill:none;}
	.st1{font-family:'JosefinSans';}
	.st2{font-size:41.8616px;}
	.st3{font-size:39.1546px;}
</style>
<rect y="0.4" class="st0" width="375" height="375"/>
<title>SEVEN</title>
<g>
	<polygon points="21.4,55.3 21.4,116.9 153.9,116.9 24.7,359 97,359 250.8,55.3 	"/>
	<polygon points="280,116 361.1,116 361.1,55.3 136.3,55.3 136.3,116 217.4,116 217.4,359 280,359 	"/>
	<text transform="matrix(0.9353 0 0 1 56.4081 44.3727)" class="st1 st2">S</text>
	<text transform="matrix(0.9353 0 0 1 109.3456 44.3727)" class="st1 st2">E</text>
	<text transform="matrix(0.9353 0 0 1 164.1854 44.3727)" class="st1 st2">V</text>
	<text transform="matrix(0.9353 0 0 1 223.7811 44.3727)" class="st1 st2">E</text>
	<text transform="matrix(0.9353 0 0 1 278.6229 44.3727)" class="st1 st2">N</text>
	<text transform="matrix(6.123234e-17 1.0691 -1 6.546573e-17 309.242 137.4665)" class="st1 st3">T</text>
	<text transform="matrix(6.123234e-17 1.0691 -1 6.546573e-17 309.242 160.5856)" class="st1 st3">H</text>
	<text transform="matrix(6.123234e-17 1.0691 -1 6.546573e-17 309.242 189.8708)" class="st1 st3">O</text>
	<text transform="matrix(6.123234e-17 1.0691 -1 6.546573e-17 309.242 225.0114)" class="st1 st3">U</text>
	<text transform="matrix(6.123234e-17 1.0691 -1 6.546573e-17 309.242 252.2936)" class="st1 st3">G</text>
	<text transform="matrix(6.123234e-17 1.0691 -1 6.546573e-17 309.242 280.8366)" class="st1 st3">H</text>
	<text transform="matrix(6.123234e-17 1.0691 -1 6.546573e-17 309.242 310.1213)" class="st1 st3">T</text>
	<text transform="matrix(6.123234e-17 1.0691 -1 6.546573e-17 309.242 333.2424)" class="st1 st3">S</text>
</g>
</svg>
