<svg id="Layer_1" data-name="Layer 1" xmlns="http://www.w3.org/2000/svg" viewBox="0 0 117.8 113.62">
    <defs>
        <style>.cls-1,.cls-2,.cls-3{isolation:isolate;font-size:13.58px;font-family:JosefinSans, Josefin
            Sans;}.cls-2{letter-spacing:-0.04em;}.cls-3{letter-spacing:-0.03em;}
        </style>
    </defs>
    <title>SevenLogo</title>
    <polygon points="0 15.09 0 35.08 45.93 35.08 1.15 113.62 26.22 113.62 79.55 15.09 0 15.09"/>
    <polygon
            points="89.69 34.79 117.8 34.79 117.8 15.09 39.84 15.09 39.84 34.79 67.95 34.79 67.95 113.62 89.69 113.62 89.69 34.79"/>
    <text class="cls-1" transform="translate(12.13 11.54)">S</text>
    <text class="cls-1" transform="translate(30.49 11.54)">E</text>
    <text class="cls-2" transform="translate(49.51 11.54)">V</text>
    <text class="cls-1" transform="translate(70.18 11.54)">E</text>
    <text class="cls-1" transform="translate(89.2 11.54)">N</text>
    <text class="cls-3" transform="translate(99.82 41.74) rotate(90)">T</text>
    <text class="cls-1" transform="translate(99.82 49.24) rotate(90)">H</text>
    <text class="cls-1" transform="translate(99.82 58.74) rotate(90)">O</text>
    <text class="cls-1" transform="translate(99.82 70.14) rotate(90)">U</text>
    <text class="cls-1" transform="translate(99.82 78.99) rotate(90)">G</text>
    <text class="cls-1" transform="translate(99.82 88.25) rotate(90)">H</text>
    <text class="cls-3" transform="translate(99.82 97.75) rotate(90)">T</text>
    <text class="cls-1" transform="translate(99.82 105.25) rotate(90)">S</text>
</svg>